<svg width="128" height="128" viewBox="0 0 128 128" fill="none" xmlns="http://www.w3.org/2000/svg">
  <rect width="128" height="128" fill="none"/>
  <path d="M35.817 73.108C35.319 73.108 34.836 73.042 34.368 72.91C33.906 72.772 33.534 72.595 33.252 72.379L33.747 71.281C34.017 71.479 34.338 71.638 34.71 71.758C35.082 71.878 35.454 71.938 35.826 71.938C36.24 71.938 36.546 71.878 36.744 71.758C36.942 71.632 37.041 71.467 37.041 71.263C37.041 71.113 36.981 70.99 36.861 70.894C36.747 70.792 36.597 70.711 36.411 70.651C36.231 70.591 35.985 70.525 35.673 70.453C35.193 70.339 34.8 70.225 34.494 70.111C34.188 69.997 33.924 69.814 33.702 69.562C33.486 69.31 33.378 68.974 33.378 68.554C33.378 68.188 33.477 67.858 33.675 67.564C33.873 67.264 34.17 67.027 34.566 66.853C34.968 66.679 35.457 66.592 36.033 66.592C36.435 66.592 36.828 66.64 37.212 66.736C37.596 66.832 37.932 66.97 38.22 67.15L37.77 68.257C37.188 67.927 36.606 67.762 36.024 67.762C35.616 67.762 35.313 67.828 35.115 67.96C34.923 68.092 34.827 68.266 34.827 68.482C34.827 68.698 34.938 68.86 35.16 68.968C35.388 69.07 35.733 69.172 36.195 69.274C36.675 69.388 37.068 69.502 37.374 69.616C37.68 69.73 37.941 69.91 38.157 70.156C38.379 70.402 38.49 70.735 38.49 71.155C38.49 71.515 38.388 71.845 38.184 72.145C37.986 72.439 37.686 72.673 37.284 72.847C36.882 73.021 36.393 73.108 35.817 73.108ZM49.7643 71.83V73H44.8863V66.7H49.6473V67.87H46.3353V69.238H49.2603V70.372H46.3353V71.83H49.7643ZM56.3243 66.7H57.7823V71.812H60.9413V73H56.3243V66.7ZM72.034 71.83V73H67.156V66.7H71.917V67.87H68.605V69.238H71.53V70.372H68.605V71.83H72.034ZM81.5915 73.108C80.9495 73.108 80.3675 72.97 79.8455 72.694C79.3295 72.412 78.9215 72.025 78.6215 71.533C78.3275 71.035 78.1805 70.474 78.1805 69.85C78.1805 69.226 78.3275 68.668 78.6215 68.176C78.9215 67.678 79.3295 67.291 79.8455 67.015C80.3675 66.733 80.9525 66.592 81.6005 66.592C82.1465 66.592 82.6385 66.688 83.0765 66.88C83.5205 67.072 83.8925 67.348 84.1925 67.708L83.2565 68.572C82.8305 68.08 82.3025 67.834 81.6725 67.834C81.2825 67.834 80.9345 67.921 80.6285 68.095C80.3225 68.263 80.0825 68.5 79.9085 68.806C79.7405 69.112 79.6565 69.46 79.6565 69.85C79.6565 70.24 79.7405 70.588 79.9085 70.894C80.0825 71.2 80.3225 71.44 80.6285 71.614C80.9345 71.782 81.2825 71.866 81.6725 71.866C82.3025 71.866 82.8305 71.617 83.2565 71.119L84.1925 71.983C83.8925 72.349 83.5205 72.628 83.0765 72.82C82.6325 73.012 82.1375 73.108 81.5915 73.108ZM91.8206 67.888H89.8046V66.7H95.2946V67.888H93.2786V73H91.8206V67.888Z" fill="#695B5B"/>
  <path d="M63.6464 45.3536C63.8417 45.5488 64.1583 45.5488 64.3536 45.3536L67.5355 42.1716C67.7308 41.9763 67.7308 41.6597 67.5355 41.4645C67.3403 41.2692 67.0237 41.2692 66.8284 41.4645L64 44.2929L61.1716 41.4645C60.9763 41.2692 60.6597 41.2692 60.4645 41.4645C60.2692 41.6597 60.2692 41.9763 60.4645 42.1716L63.6464 45.3536ZM63.5 0V45H64.5V0L63.5 0Z" fill="#695B5B"/>
  <mask id="mask0" mask-type="alpha" maskUnits="userSpaceOnUse" x="0" y="73" width="128" height="55">
    <rect y="73" width="128" height="55" fill="#C4C4C4"/>
  </mask>
  <g mask="url(#mask0)">
    <circle cx="64" cy="64" r="64" fill="#695B5B"/>
    <circle cx="64" cy="66" r="62" fill="#F0F0F5"/>
  </g>
</svg>
